<mxfile host="65bd71144e">
    <diagram id="Yqb5MGsV7pDuNyz5uidy" name="Page-1">
        <mxGraphModel dx="1054" dy="-529" grid="1" gridSize="10" guides="1" tooltips="1" connect="1" arrows="1" fold="1" page="1" pageScale="1" pageWidth="850" pageHeight="1100" math="0" shadow="0">
            <root>
                <mxCell id="0"/>
                <mxCell id="1" parent="0"/>
                <mxCell id="65" value="Lane" style="swimlane;fontStyle=1;align=center;verticalAlign=top;childLayout=stackLayout;horizontal=1;startSize=26;horizontalStack=0;resizeParent=1;resizeParentMax=0;resizeLast=0;collapsible=1;marginBottom=0;whiteSpace=wrap;html=1;" parent="1" vertex="1">
                    <mxGeometry x="148.06" y="1380" width="361.94" height="348" as="geometry"/>
                </mxCell>
                <mxCell id="66" value="- mType: Type" style="text;strokeColor=none;fillColor=none;align=left;verticalAlign=top;spacingLeft=4;spacingRight=4;overflow=hidden;rotatable=0;points=[[0,0.5],[1,0.5]];portConstraint=eastwest;whiteSpace=wrap;html=1;" parent="65" vertex="1">
                    <mxGeometry y="26" width="361.94" height="26" as="geometry"/>
                </mxCell>
                <mxCell id="110" value="- mSprite: sf::Sprite" style="text;strokeColor=none;fillColor=none;align=left;verticalAlign=top;spacingLeft=4;spacingRight=4;overflow=hidden;rotatable=0;points=[[0,0.5],[1,0.5]];portConstraint=eastwest;whiteSpace=wrap;html=1;" parent="65" vertex="1">
                    <mxGeometry y="52" width="361.94" height="26" as="geometry"/>
                </mxCell>
                <mxCell id="67" value="- mTopLane:&amp;nbsp; std::unique_ptr&amp;lt;Lane&amp;gt;" style="text;strokeColor=none;fillColor=none;align=left;verticalAlign=top;spacingLeft=4;spacingRight=4;overflow=hidden;rotatable=0;points=[[0,0.5],[1,0.5]];portConstraint=eastwest;whiteSpace=wrap;html=1;" parent="65" vertex="1">
                    <mxGeometry y="78" width="361.94" height="26" as="geometry"/>
                </mxCell>
                <mxCell id="111" value="- mBottomLane: std::unique_ptr&amp;lt;Lane&amp;gt;" style="text;strokeColor=none;fillColor=none;align=left;verticalAlign=top;spacingLeft=4;spacingRight=4;overflow=hidden;rotatable=0;points=[[0,0.5],[1,0.5]];portConstraint=eastwest;whiteSpace=wrap;html=1;" parent="65" vertex="1">
                    <mxGeometry y="104" width="361.94" height="26" as="geometry"/>
                </mxCell>
                <mxCell id="113" value="- mTrafficLight: std::unique_ptr&amp;lt;TrafficLight&amp;gt;" style="text;strokeColor=none;fillColor=none;align=left;verticalAlign=top;spacingLeft=4;spacingRight=4;overflow=hidden;rotatable=0;points=[[0,0.5],[1,0.5]];portConstraint=eastwest;whiteSpace=wrap;html=1;" parent="65" vertex="1">
                    <mxGeometry y="130" width="361.94" height="26" as="geometry"/>
                </mxCell>
                <mxCell id="68" value="" style="line;strokeWidth=1;fillColor=none;align=left;verticalAlign=middle;spacingTop=-1;spacingLeft=3;spacingRight=3;rotatable=0;labelPosition=right;points=[];portConstraint=eastwest;strokeColor=inherit;" parent="65" vertex="1">
                    <mxGeometry y="156" width="361.94" height="8" as="geometry"/>
                </mxCell>
                <mxCell id="69" value="+ &amp;lt;&amp;lt;explicit&amp;gt;&amp;gt;Lane(type: Type, textures:const TextureHolder&amp;amp;, )" style="text;strokeColor=none;fillColor=none;align=left;verticalAlign=top;spacingLeft=4;spacingRight=4;overflow=hidden;rotatable=0;points=[[0,0.5],[1,0.5]];portConstraint=eastwest;whiteSpace=wrap;html=1;" parent="65" vertex="1">
                    <mxGeometry y="164" width="361.94" height="34" as="geometry"/>
                </mxCell>
                <mxCell id="70" value="+ &amp;lt;&amp;lt;virtual, const&amp;gt;&amp;gt; getCategory(): unsigned int" style="text;strokeColor=none;fillColor=none;align=left;verticalAlign=top;spacingLeft=4;spacingRight=4;overflow=hidden;rotatable=0;points=[[0,0.5],[1,0.5]];portConstraint=eastwest;whiteSpace=wrap;html=1;" parent="65" vertex="1">
                    <mxGeometry y="198" width="361.94" height="26" as="geometry"/>
                </mxCell>
                <mxCell id="71" value="+ &amp;lt;&amp;lt;virtual, const&amp;gt;&amp;gt; getBoundingRect(): sf::FloatRect" style="text;strokeColor=none;fillColor=none;align=left;verticalAlign=top;spacingLeft=4;spacingRight=4;overflow=hidden;rotatable=0;points=[[0,0.5],[1,0.5]];portConstraint=eastwest;whiteSpace=wrap;html=1;" parent="65" vertex="1">
                    <mxGeometry y="224" width="361.94" height="26" as="geometry"/>
                </mxCell>
                <mxCell id="72" value="- &amp;lt;&amp;lt;virtual&amp;gt;&amp;gt; updateCurrent(dt: sf::Time): void" style="text;strokeColor=none;fillColor=none;align=left;verticalAlign=top;spacingLeft=4;spacingRight=4;overflow=hidden;rotatable=0;points=[[0,0.5],[1,0.5]];portConstraint=eastwest;whiteSpace=wrap;html=1;" parent="65" vertex="1">
                    <mxGeometry y="250" width="361.94" height="26" as="geometry"/>
                </mxCell>
                <mxCell id="73" value="- &amp;lt;&amp;lt;virtual, const&amp;gt;&amp;gt; drawCurrent(target: sf::RenderTarget&amp;amp;, &lt;br&gt;&lt;span style=&quot;white-space: pre;&quot;&gt;&#9;&lt;/span&gt;&lt;span style=&quot;white-space: pre;&quot;&gt;&#9;&lt;/span&gt;&lt;span style=&quot;white-space: pre;&quot;&gt;&#9;&lt;/span&gt;&lt;span style=&quot;white-space: pre;&quot;&gt;&#9;&lt;span style=&quot;white-space: pre;&quot;&gt;&#9;&lt;span style=&quot;white-space: pre;&quot;&gt;&#9;&lt;/span&gt; &lt;/span&gt; &lt;/span&gt;&amp;nbsp; states: sf::RenderStates): void" style="text;strokeColor=none;fillColor=none;align=left;verticalAlign=top;spacingLeft=4;spacingRight=4;overflow=hidden;rotatable=0;points=[[0,0.5],[1,0.5]];portConstraint=eastwest;whiteSpace=wrap;html=1;" parent="65" vertex="1">
                    <mxGeometry y="276" width="361.94" height="38" as="geometry"/>
                </mxCell>
                <mxCell id="74" value="- updateMovementPattern(dt: sf::Time): void" style="text;strokeColor=none;fillColor=none;align=left;verticalAlign=top;spacingLeft=4;spacingRight=4;overflow=hidden;rotatable=0;points=[[0,0.5],[1,0.5]];portConstraint=eastwest;whiteSpace=wrap;html=1;" parent="65" vertex="1">
                    <mxGeometry y="314" width="361.94" height="34" as="geometry"/>
                </mxCell>
                <mxCell id="75" value="&lt;p style=&quot;margin:0px;margin-top:4px;text-align:center;&quot;&gt;&amp;lt;&amp;lt;enumeration&amp;gt;&amp;gt;&lt;br&gt;&lt;b&gt;TYPE&lt;/b&gt;&lt;/p&gt;&lt;hr&gt;&lt;p style=&quot;margin:0px;margin-left:8px;text-align:left;&quot;&gt;River&lt;/p&gt;&lt;p style=&quot;margin:0px;margin-left:8px;text-align:left;&quot;&gt;Dirt&lt;/p&gt;&lt;p style=&quot;margin:0px;margin-left:8px;text-align:left;&quot;&gt;Grass&lt;/p&gt;&lt;p style=&quot;margin:0px;margin-left:8px;text-align:left;&quot;&gt;Graveyard&lt;/p&gt;&lt;p style=&quot;margin:0px;margin-left:8px;text-align:left;&quot;&gt;Soil&lt;/p&gt;&lt;p style=&quot;margin:0px;margin-left:8px;text-align:left;&quot;&gt;Swamp&lt;/p&gt;" style="shape=rect;html=1;overflow=fill;whiteSpace=wrap;" parent="1" vertex="1">
                    <mxGeometry x="10" y="1452" width="99.36" height="230" as="geometry"/>
                </mxCell>
                <mxCell id="76" value="" style="endArrow=open;endSize=12;dashed=1;html=1;rounded=0;" parent="1" source="65" target="75" edge="1">
                    <mxGeometry width="160" relative="1" as="geometry">
                        <mxPoint x="-30" y="1740.81" as="sourcePoint"/>
                        <mxPoint x="130" y="1740.81" as="targetPoint"/>
                    </mxGeometry>
                </mxCell>
                <mxCell id="106" value="SceneNode" style="swimlane;fontStyle=1;align=center;verticalAlign=top;childLayout=stackLayout;horizontal=1;startSize=26;horizontalStack=0;resizeParent=1;resizeParentMax=0;resizeLast=0;collapsible=1;marginBottom=0;whiteSpace=wrap;html=1;" parent="1" vertex="1" collapsed="1">
                    <mxGeometry x="510" y="1250" width="110" height="30" as="geometry">
                        <mxRectangle x="170" y="720" width="330" height="34" as="alternateBounds"/>
                    </mxGeometry>
                </mxCell>
                <mxCell id="107" value="" style="line;strokeWidth=1;fillColor=none;align=left;verticalAlign=middle;spacingTop=-1;spacingLeft=3;spacingRight=3;rotatable=0;labelPosition=right;points=[];portConstraint=eastwest;strokeColor=inherit;" parent="106" vertex="1">
                    <mxGeometry y="26" width="330" height="8" as="geometry"/>
                </mxCell>
                <mxCell id="108" value="" style="endArrow=block;endSize=16;endFill=0;html=1;exitX=0.5;exitY=0;exitDx=0;exitDy=0;rounded=0;" parent="1" source="65" target="106" edge="1">
                    <mxGeometry x="0.3713" y="36" width="160" relative="1" as="geometry">
                        <mxPoint x="245" y="1310" as="sourcePoint"/>
                        <mxPoint x="150" y="1240" as="targetPoint"/>
                        <mxPoint as="offset"/>
                        <Array as="points">
                            <mxPoint x="330" y="1330"/>
                            <mxPoint x="565" y="1330"/>
                        </Array>
                    </mxGeometry>
                </mxCell>
                <mxCell id="114" value="TrafficLight" style="swimlane;fontStyle=1;align=center;verticalAlign=top;childLayout=stackLayout;horizontal=1;startSize=26;horizontalStack=0;resizeParent=1;resizeParentMax=0;resizeLast=0;collapsible=1;marginBottom=0;whiteSpace=wrap;html=1;" parent="1" vertex="1">
                    <mxGeometry x="620" y="1419" width="361.94" height="270" as="geometry"/>
                </mxCell>
                <mxCell id="115" value="- mType: Type" style="text;strokeColor=none;fillColor=none;align=left;verticalAlign=top;spacingLeft=4;spacingRight=4;overflow=hidden;rotatable=0;points=[[0,0.5],[1,0.5]];portConstraint=eastwest;whiteSpace=wrap;html=1;" parent="114" vertex="1">
                    <mxGeometry y="26" width="361.94" height="26" as="geometry"/>
                </mxCell>
                <mxCell id="116" value="- mSprite: sf::Sprite" style="text;strokeColor=none;fillColor=none;align=left;verticalAlign=top;spacingLeft=4;spacingRight=4;overflow=hidden;rotatable=0;points=[[0,0.5],[1,0.5]];portConstraint=eastwest;whiteSpace=wrap;html=1;" parent="114" vertex="1">
                    <mxGeometry y="52" width="361.94" height="26" as="geometry"/>
                </mxCell>
                <mxCell id="120" value="" style="line;strokeWidth=1;fillColor=none;align=left;verticalAlign=middle;spacingTop=-1;spacingLeft=3;spacingRight=3;rotatable=0;labelPosition=right;points=[];portConstraint=eastwest;strokeColor=inherit;" parent="114" vertex="1">
                    <mxGeometry y="78" width="361.94" height="8" as="geometry"/>
                </mxCell>
                <mxCell id="121" value="+ &amp;lt;&amp;lt;explicit&amp;gt;&amp;gt;TrafficLight(type: Type, textures:const &lt;span style=&quot;white-space: pre;&quot;&gt;&#9;&lt;/span&gt;&lt;span style=&quot;white-space: pre;&quot;&gt;&#9;&lt;/span&gt;&lt;span style=&quot;white-space: pre;&quot;&gt;&#9;&lt;/span&gt;&lt;span style=&quot;white-space: pre;&quot;&gt;&#9;&lt;/span&gt;&lt;span style=&quot;white-space: pre;&quot;&gt;&#9;&lt;/span&gt;TextureHolder&amp;amp;)" style="text;strokeColor=none;fillColor=none;align=left;verticalAlign=top;spacingLeft=4;spacingRight=4;overflow=hidden;rotatable=0;points=[[0,0.5],[1,0.5]];portConstraint=eastwest;whiteSpace=wrap;html=1;" parent="114" vertex="1">
                    <mxGeometry y="86" width="361.94" height="34" as="geometry"/>
                </mxCell>
                <mxCell id="122" value="+ &amp;lt;&amp;lt;virtual, const&amp;gt;&amp;gt; getCategory(): unsigned int" style="text;strokeColor=none;fillColor=none;align=left;verticalAlign=top;spacingLeft=4;spacingRight=4;overflow=hidden;rotatable=0;points=[[0,0.5],[1,0.5]];portConstraint=eastwest;whiteSpace=wrap;html=1;" parent="114" vertex="1">
                    <mxGeometry y="120" width="361.94" height="26" as="geometry"/>
                </mxCell>
                <mxCell id="123" value="+ &amp;lt;&amp;lt;virtual, const&amp;gt;&amp;gt; getBoundingRect(): sf::FloatRect" style="text;strokeColor=none;fillColor=none;align=left;verticalAlign=top;spacingLeft=4;spacingRight=4;overflow=hidden;rotatable=0;points=[[0,0.5],[1,0.5]];portConstraint=eastwest;whiteSpace=wrap;html=1;" parent="114" vertex="1">
                    <mxGeometry y="146" width="361.94" height="26" as="geometry"/>
                </mxCell>
                <mxCell id="124" value="- &amp;lt;&amp;lt;virtual&amp;gt;&amp;gt; updateCurrent(dt: sf::Time): void" style="text;strokeColor=none;fillColor=none;align=left;verticalAlign=top;spacingLeft=4;spacingRight=4;overflow=hidden;rotatable=0;points=[[0,0.5],[1,0.5]];portConstraint=eastwest;whiteSpace=wrap;html=1;" parent="114" vertex="1">
                    <mxGeometry y="172" width="361.94" height="26" as="geometry"/>
                </mxCell>
                <mxCell id="125" value="- &amp;lt;&amp;lt;virtual, const&amp;gt;&amp;gt; drawCurrent(target: sf::RenderTarget&amp;amp;, &lt;br&gt;&lt;span style=&quot;white-space: pre;&quot;&gt;&#9;&lt;/span&gt;&lt;span style=&quot;white-space: pre;&quot;&gt;&#9;&lt;/span&gt;&lt;span style=&quot;white-space: pre;&quot;&gt;&#9;&lt;/span&gt;&lt;span style=&quot;white-space: pre;&quot;&gt;&#9;&lt;span style=&quot;white-space: pre;&quot;&gt;&#9;&lt;span style=&quot;white-space: pre;&quot;&gt;&#9;&lt;/span&gt; &lt;/span&gt; &lt;/span&gt;&amp;nbsp; &amp;nbsp;states: sf::RenderStates): void" style="text;strokeColor=none;fillColor=none;align=left;verticalAlign=top;spacingLeft=4;spacingRight=4;overflow=hidden;rotatable=0;points=[[0,0.5],[1,0.5]];portConstraint=eastwest;whiteSpace=wrap;html=1;" parent="114" vertex="1">
                    <mxGeometry y="198" width="361.94" height="38" as="geometry"/>
                </mxCell>
                <mxCell id="126" value="- updateMovementPattern(dt: sf::Time): void" style="text;strokeColor=none;fillColor=none;align=left;verticalAlign=top;spacingLeft=4;spacingRight=4;overflow=hidden;rotatable=0;points=[[0,0.5],[1,0.5]];portConstraint=eastwest;whiteSpace=wrap;html=1;" parent="114" vertex="1">
                    <mxGeometry y="236" width="361.94" height="34" as="geometry"/>
                </mxCell>
                <mxCell id="127" value="&lt;p style=&quot;margin:0px;margin-top:4px;text-align:center;&quot;&gt;&amp;lt;&amp;lt;enumeration&amp;gt;&amp;gt;&lt;br&gt;&lt;b&gt;TYPE&lt;/b&gt;&lt;/p&gt;&lt;hr&gt;&lt;p style=&quot;margin:0px;margin-left:8px;text-align:left;&quot;&gt;Field&lt;/p&gt;&lt;p style=&quot;margin:0px;margin-left:8px;text-align:left;&quot;&gt;Graveryard&lt;/p&gt;&lt;p style=&quot;margin:0px;margin-left:8px;text-align:left;&quot;&gt;Swamp&lt;/p&gt;&lt;p style=&quot;margin:0px;margin-left:8px;text-align:left;&quot;&gt;&lt;br&gt;&lt;/p&gt;" style="shape=rect;html=1;overflow=fill;whiteSpace=wrap;" parent="1" vertex="1">
                    <mxGeometry x="1030" y="1468.5" width="99.36" height="171" as="geometry"/>
                </mxCell>
                <mxCell id="130" value="" style="endArrow=open;endSize=12;dashed=1;html=1;rounded=0;" parent="1" source="114" target="127" edge="1">
                    <mxGeometry width="160" relative="1" as="geometry">
                        <mxPoint x="218.05999999999995" y="1572.7343976239094" as="sourcePoint"/>
                        <mxPoint x="179.36" y="1574.6022275849266" as="targetPoint"/>
                    </mxGeometry>
                </mxCell>
                <mxCell id="136" value="" style="endArrow=block;endSize=16;endFill=0;html=1;rounded=0;" parent="1" source="114" target="106" edge="1">
                    <mxGeometry x="0.3713" y="36" width="160" relative="1" as="geometry">
                        <mxPoint x="660" y="1360" as="sourcePoint"/>
                        <mxPoint x="895.97" y="1260" as="targetPoint"/>
                        <mxPoint as="offset"/>
                        <Array as="points">
                            <mxPoint x="801" y="1330"/>
                            <mxPoint x="565" y="1330"/>
                        </Array>
                    </mxGeometry>
                </mxCell>
                <mxCell id="138" value="1" style="endArrow=open;html=1;endSize=12;startArrow=diamondThin;startSize=14;startFill=0;edgeStyle=orthogonalEdgeStyle;align=left;verticalAlign=bottom;" edge="1" parent="1" source="65" target="114">
                    <mxGeometry x="-1" y="3" relative="1" as="geometry">
                        <mxPoint x="550" y="1520" as="sourcePoint"/>
                        <mxPoint x="710" y="1520" as="targetPoint"/>
                    </mxGeometry>
                </mxCell>
                <mxCell id="140" value="&lt;span style=&quot;color: rgb(240, 240, 240); font-family: Helvetica; font-size: 11px; font-style: normal; font-variant-ligatures: normal; font-variant-caps: normal; font-weight: 400; letter-spacing: normal; orphans: 2; text-align: left; text-indent: 0px; text-transform: none; widows: 2; word-spacing: 0px; -webkit-text-stroke-width: 0px; background-color: rgb(24, 20, 29); text-decoration-thickness: initial; text-decoration-style: initial; text-decoration-color: initial; float: none; display: inline !important;&quot;&gt;1&lt;/span&gt;" style="text;whiteSpace=wrap;html=1;fillColor=none;" vertex="1" parent="1">
                    <mxGeometry x="610" y="1520" width="10" height="20" as="geometry"/>
                </mxCell>
            </root>
        </mxGraphModel>
    </diagram>
</mxfile>
